<?xml version="1.0" encoding="UTF-8"?>
<svg xmlns="http://www.w3.org/2000/svg" viewBox="0 0 1600 1020" font-family="Arial, sans-serif">
  <rect width="1600" height="1020" fill="#FFFFFF"/>

  <!-- Master title -->
  <text x="800" y="34" text-anchor="middle" font-size="22" font-weight="700" fill="#1A202C">
    Figure 1. Distributions of Real Stock Returns and GDP Growth — China &amp; United Kingdom
  </text>
  <text x="800" y="60" text-anchor="middle" font-size="14" font-style="italic" fill="#4A5568">
    Annual frequencies of yearly observations. China 1991–2024 (n = 34); United Kingdom 1984–2024 (n = 41).
  </text>

  <!-- Thin separators between cells -->
  <line x1="800" y1="82" x2="800" y2="1015" stroke="#E2E8F0" stroke-width="1"/>
  <line x1="10"  y1="546" x2="1590" y2="546" stroke="#E2E8F0" stroke-width="1"/>

  <!-- ============================================================== -->
  <!-- Panel (a) top-left  — r_CN                                      -->
  <!-- ============================================================== -->
  <g transform="translate(10,82) scale(0.78)">
    <rect width="1000" height="565" fill="#FFFFFF"/>

    <text x="500" y="42" text-anchor="middle" font-size="20" font-weight="700" fill="#1A202C">
      (a) Real Stock Returns — China
    </text>
    <text x="500" y="66" text-anchor="middle" font-size="13" font-style="italic" fill="#4A5568">
      Annual real log-returns of the SHCOMP, 1991–2024
    </text>

    <g font-size="11" fill="#4A5568" text-anchor="end">
      <line x1="90" y1="500" x2="940" y2="500" stroke="#2D3748" stroke-width="1"/>
      <line x1="90" y1="461" x2="940" y2="461" stroke="#E2E8F0" stroke-width="1"/>
      <line x1="90" y1="422" x2="940" y2="422" stroke="#E2E8F0" stroke-width="1"/>
      <line x1="90" y1="383" x2="940" y2="383" stroke="#E2E8F0" stroke-width="1"/>
      <line x1="90" y1="344" x2="940" y2="344" stroke="#E2E8F0" stroke-width="1"/>
      <line x1="90" y1="305" x2="940" y2="305" stroke="#E2E8F0" stroke-width="1"/>
      <line x1="90" y1="266" x2="940" y2="266" stroke="#E2E8F0" stroke-width="1"/>
      <line x1="90" y1="227" x2="940" y2="227" stroke="#E2E8F0" stroke-width="1"/>
      <line x1="90" y1="188" x2="940" y2="188" stroke="#E2E8F0" stroke-width="1"/>
      <line x1="90" y1="149" x2="940" y2="149" stroke="#E2E8F0" stroke-width="1"/>
      <line x1="90" y1="110" x2="940" y2="110" stroke="#E2E8F0" stroke-width="1"/>

      <text x="80" y="504">0</text>
      <text x="80" y="465">1</text>
      <text x="80" y="426">2</text>
      <text x="80" y="387">3</text>
      <text x="80" y="348">4</text>
      <text x="80" y="309">5</text>
      <text x="80" y="270">6</text>
      <text x="80" y="231">7</text>
      <text x="80" y="192">8</text>
      <text x="80" y="153">9</text>
      <text x="80" y="114">10</text>
    </g>

    <text transform="translate(36,305) rotate(-90)" text-anchor="middle" font-size="13" font-weight="600" fill="#1A202C">
      Frequency (number of years)
    </text>

    <g fill="#9B2C2C" stroke="#742A2A" stroke-width="0.75">
      <rect x="94"     y="461" width="62.83" height="39"/>
      <rect x="306.5"  y="461" width="62.83" height="39"/>
      <rect x="377.33" y="305" width="62.83" height="195"/>
      <rect x="448.17" y="149" width="62.83" height="351"/>
      <rect x="519"    y="149" width="62.83" height="351"/>
      <rect x="589.83" y="461" width="62.83" height="39"/>
      <rect x="660.67" y="344" width="62.83" height="156"/>
      <rect x="731.5"  y="422" width="62.83" height="78"/>
      <rect x="802.33" y="422" width="62.83" height="78"/>
    </g>

    <g font-size="11" fill="#1A202C" text-anchor="middle" font-weight="600">
      <text x="125.42" y="453">1</text>
      <text x="337.92" y="453">1</text>
      <text x="408.75" y="297">5</text>
      <text x="479.58" y="141">9</text>
      <text x="550.42" y="141">9</text>
      <text x="621.25" y="453">1</text>
      <text x="692.08" y="336">4</text>
      <text x="762.92" y="414">2</text>
      <text x="833.75" y="414">2</text>
    </g>

    <g font-size="11" fill="#4A5568" text-anchor="middle">
      <line x1="90"     y1="500" x2="90"     y2="505" stroke="#2D3748"/>
      <line x1="160.83" y1="500" x2="160.83" y2="505" stroke="#2D3748"/>
      <line x1="231.67" y1="500" x2="231.67" y2="505" stroke="#2D3748"/>
      <line x1="302.5"  y1="500" x2="302.5"  y2="505" stroke="#2D3748"/>
      <line x1="373.33" y1="500" x2="373.33" y2="505" stroke="#2D3748"/>
      <line x1="444.17" y1="500" x2="444.17" y2="505" stroke="#2D3748"/>
      <line x1="515"    y1="500" x2="515"    y2="505" stroke="#2D3748"/>
      <line x1="585.83" y1="500" x2="585.83" y2="505" stroke="#2D3748"/>
      <line x1="656.67" y1="500" x2="656.67" y2="505" stroke="#2D3748"/>
      <line x1="727.5"  y1="500" x2="727.5"  y2="505" stroke="#2D3748"/>
      <line x1="798.33" y1="500" x2="798.33" y2="505" stroke="#2D3748"/>
      <line x1="869.17" y1="500" x2="869.17" y2="505" stroke="#2D3748"/>
      <line x1="940"    y1="500" x2="940"    y2="505" stroke="#2D3748"/>

      <text x="90"     y="520">−120</text>
      <text x="160.83" y="520">−100</text>
      <text x="231.67" y="520">−80</text>
      <text x="302.5"  y="520">−60</text>
      <text x="373.33" y="520">−40</text>
      <text x="444.17" y="520">−20</text>
      <text x="515"    y="520">0</text>
      <text x="585.83" y="520">20</text>
      <text x="656.67" y="520">40</text>
      <text x="727.5"  y="520">60</text>
      <text x="798.33" y="520">80</text>
      <text x="869.17" y="520">100</text>
      <text x="940"    y="520">120</text>
    </g>

    <text x="515" y="548" text-anchor="middle" font-size="13" font-weight="600" fill="#1A202C">
      Real stock return (% per year)
    </text>

    <line x1="522.44" y1="110" x2="522.44" y2="500" stroke="#2C7A7B" stroke-width="1.5" stroke-dasharray="2,2"/>
    <text x="518" y="124" font-size="11" fill="#2C7A7B" font-style="italic" text-anchor="end">Median = 2.10% →</text>

    <line x1="536.04" y1="110" x2="536.04" y2="500" stroke="#DD6B20" stroke-width="1.5" stroke-dasharray="5,3"/>
    <text x="540" y="124" font-size="11" fill="#DD6B20" font-style="italic">← Mean = 5.94%</text>

    <g>
      <rect x="772" y="120" width="158" height="118" fill="#FFFFFF" stroke="#CBD5E0" stroke-width="1"/>
      <text x="781" y="140" font-size="12" font-weight="700" fill="#1A202C">Summary statistics</text>
      <line x1="781" y1="146" x2="921" y2="146" stroke="#CBD5E0" stroke-width="1"/>
      <g font-size="11" fill="#1A202C">
        <text x="781" y="162">Observations</text><text x="921" y="162" text-anchor="end">34</text>
        <text x="781" y="178">Mean</text>        <text x="921" y="178" text-anchor="end">5.94%</text>
        <text x="781" y="194">Median</text>      <text x="921" y="194" text-anchor="end">2.10%</text>
        <text x="781" y="210">Std. dev.</text>   <text x="921" y="210" text-anchor="end">40.76%</text>
        <text x="781" y="226">Skewness</text>    <text x="921" y="226" text-anchor="end">−0.06</text>
      </g>
    </g>
  </g>

  <!-- ============================================================== -->
  <!-- Panel (b) top-right — Dy_CN                                     -->
  <!-- ============================================================== -->
  <g transform="translate(810,82) scale(0.78)">
    <rect width="1000" height="565" fill="#FFFFFF"/>

    <text x="500" y="42" text-anchor="middle" font-size="20" font-weight="700" fill="#1A202C">
      (b) GDP Growth — China
    </text>
    <text x="500" y="66" text-anchor="middle" font-size="13" font-style="italic" fill="#4A5568">
      Log-difference of real GDP per capita (constant 2010 USD), 1991–2024
    </text>

    <g font-size="11" fill="#4A5568" text-anchor="end">
      <line x1="90" y1="500"    x2="940" y2="500"    stroke="#2D3748" stroke-width="1"/>
      <line x1="90" y1="444.29" x2="940" y2="444.29" stroke="#E2E8F0" stroke-width="1"/>
      <line x1="90" y1="388.57" x2="940" y2="388.57" stroke="#E2E8F0" stroke-width="1"/>
      <line x1="90" y1="332.86" x2="940" y2="332.86" stroke="#E2E8F0" stroke-width="1"/>
      <line x1="90" y1="277.14" x2="940" y2="277.14" stroke="#E2E8F0" stroke-width="1"/>
      <line x1="90" y1="221.43" x2="940" y2="221.43" stroke="#E2E8F0" stroke-width="1"/>
      <line x1="90" y1="165.71" x2="940" y2="165.71" stroke="#E2E8F0" stroke-width="1"/>
      <line x1="90" y1="110"    x2="940" y2="110"    stroke="#E2E8F0" stroke-width="1"/>

      <text x="80" y="504">0</text>
      <text x="80" y="448">2</text>
      <text x="80" y="393">4</text>
      <text x="80" y="337">6</text>
      <text x="80" y="281">8</text>
      <text x="80" y="225">10</text>
      <text x="80" y="170">12</text>
      <text x="80" y="114">14</text>
    </g>

    <text transform="translate(36,305) rotate(-90)" text-anchor="middle" font-size="13" font-weight="600" fill="#1A202C">
      Frequency (number of years)
    </text>

    <g fill="#9B2C2C" stroke="#742A2A" stroke-width="0.75">
      <rect x="94"     y="472.14" width="86.44" height="27.86"/>
      <rect x="188.44" y="444.29" width="86.44" height="55.71"/>
      <rect x="282.89" y="137.86" width="86.44" height="362.14"/>
      <rect x="377.33" y="165.71" width="86.44" height="334.29"/>
      <rect x="471.78" y="360.71" width="86.44" height="139.29"/>
      <rect x="566.22" y="472.14" width="86.44" height="27.86"/>
    </g>

    <g font-size="11" fill="#1A202C" text-anchor="middle" font-weight="600">
      <text x="137.22" y="464">1</text>
      <text x="231.67" y="436">2</text>
      <text x="326.11" y="130">13</text>
      <text x="420.56" y="158">12</text>
      <text x="515"    y="353">5</text>
      <text x="609.44" y="464">1</text>
    </g>

    <g font-size="11" fill="#4A5568" text-anchor="middle">
      <line x1="90"     y1="500" x2="90"     y2="505" stroke="#2D3748"/>
      <line x1="184.44" y1="500" x2="184.44" y2="505" stroke="#2D3748"/>
      <line x1="278.89" y1="500" x2="278.89" y2="505" stroke="#2D3748"/>
      <line x1="373.33" y1="500" x2="373.33" y2="505" stroke="#2D3748"/>
      <line x1="467.78" y1="500" x2="467.78" y2="505" stroke="#2D3748"/>
      <line x1="562.22" y1="500" x2="562.22" y2="505" stroke="#2D3748"/>
      <line x1="656.67" y1="500" x2="656.67" y2="505" stroke="#2D3748"/>
      <line x1="751.11" y1="500" x2="751.11" y2="505" stroke="#2D3748"/>
      <line x1="845.56" y1="500" x2="845.56" y2="505" stroke="#2D3748"/>
      <line x1="940"    y1="500" x2="940"    y2="505" stroke="#2D3748"/>

      <text x="90"     y="520">0</text>
      <text x="184.44" y="520">2.5</text>
      <text x="278.89" y="520">5</text>
      <text x="373.33" y="520">7.5</text>
      <text x="467.78" y="520">10</text>
      <text x="562.22" y="520">12.5</text>
      <text x="656.67" y="520">15</text>
      <text x="751.11" y="520">17.5</text>
      <text x="845.56" y="520">20</text>
    </g>

    <text x="515" y="548" text-anchor="middle" font-size="13" font-weight="600" fill="#1A202C">
      GDP per-capita growth (% per year)
    </text>

    <line x1="418.10" y1="110" x2="418.10" y2="500" stroke="#2C7A7B" stroke-width="1.5" stroke-dasharray="2,2"/>
    <text x="414" y="124" font-size="11" fill="#2C7A7B" font-style="italic" text-anchor="end">Median = 7.72% →</text>

    <line x1="422.78" y1="110" x2="422.78" y2="500" stroke="#DD6B20" stroke-width="1.5" stroke-dasharray="5,3"/>
    <text x="427" y="124" font-size="11" fill="#DD6B20" font-style="italic">← Mean = 7.83%</text>

    <g>
      <rect x="772" y="120" width="158" height="118" fill="#FFFFFF" stroke="#CBD5E0" stroke-width="1"/>
      <text x="781" y="140" font-size="12" font-weight="700" fill="#1A202C">Summary statistics</text>
      <line x1="781" y1="146" x2="921" y2="146" stroke="#CBD5E0" stroke-width="1"/>
      <g font-size="11" fill="#1A202C">
        <text x="781" y="162">Observations</text><text x="921" y="162" text-anchor="end">34</text>
        <text x="781" y="178">Mean</text>        <text x="921" y="178" text-anchor="end">7.83%</text>
        <text x="781" y="194">Median</text>      <text x="921" y="194" text-anchor="end">7.72%</text>
        <text x="781" y="210">Std. dev.</text>   <text x="921" y="210" text-anchor="end">2.42%</text>
        <text x="781" y="226">Skewness</text>    <text x="921" y="226" text-anchor="end">≈ 0.00</text>
      </g>
    </g>
  </g>

  <!-- ============================================================== -->
  <!-- Panel (c) bottom-left — r_GB                                    -->
  <!-- ============================================================== -->
  <g transform="translate(10,548) scale(0.78)">
    <rect width="1000" height="565" fill="#FFFFFF"/>

    <text x="500" y="42" text-anchor="middle" font-size="20" font-weight="700" fill="#1A202C">
      (c) Real Stock Returns — United Kingdom
    </text>
    <text x="500" y="66" text-anchor="middle" font-size="13" font-style="italic" fill="#4A5568">
      Annual real log-returns of the FTSE 100 (UKX), 1984–2024
    </text>

    <g font-size="11" fill="#4A5568" text-anchor="end">
      <line x1="90" y1="500"    x2="940" y2="500"    stroke="#2D3748" stroke-width="1"/>
      <line x1="90" y1="456.67" x2="940" y2="456.67" stroke="#E2E8F0" stroke-width="1"/>
      <line x1="90" y1="413.33" x2="940" y2="413.33" stroke="#E2E8F0" stroke-width="1"/>
      <line x1="90" y1="370"    x2="940" y2="370"    stroke="#E2E8F0" stroke-width="1"/>
      <line x1="90" y1="326.67" x2="940" y2="326.67" stroke="#E2E8F0" stroke-width="1"/>
      <line x1="90" y1="283.33" x2="940" y2="283.33" stroke="#E2E8F0" stroke-width="1"/>
      <line x1="90" y1="240"    x2="940" y2="240"    stroke="#E2E8F0" stroke-width="1"/>
      <line x1="90" y1="196.67" x2="940" y2="196.67" stroke="#E2E8F0" stroke-width="1"/>
      <line x1="90" y1="153.33" x2="940" y2="153.33" stroke="#E2E8F0" stroke-width="1"/>
      <line x1="90" y1="110"    x2="940" y2="110"    stroke="#E2E8F0" stroke-width="1"/>

      <text x="80" y="504">0</text>
      <text x="80" y="461">1</text>
      <text x="80" y="417">2</text>
      <text x="80" y="374">3</text>
      <text x="80" y="331">4</text>
      <text x="80" y="287">5</text>
      <text x="80" y="244">6</text>
      <text x="80" y="201">7</text>
      <text x="80" y="157">8</text>
      <text x="80" y="114">9</text>
    </g>

    <text transform="translate(36,305) rotate(-90)" text-anchor="middle" font-size="13" font-weight="600" fill="#1A202C">
      Frequency (number of years)
    </text>

    <g fill="#2C5282" stroke="#1A365D" stroke-width="0.75">
      <rect x="94"     y="456.67" width="48.67" height="43.33"/>
      <rect x="264"    y="456.67" width="48.67" height="43.33"/>
      <rect x="320.67" y="456.67" width="48.67" height="43.33"/>
      <rect x="377.33" y="370"    width="48.67" height="130"/>
      <rect x="434"    y="413.33" width="48.67" height="86.67"/>
      <rect x="490.67" y="370"    width="48.67" height="130"/>
      <rect x="547.33" y="370"    width="48.67" height="130"/>
      <rect x="604"    y="283.33" width="48.67" height="216.67"/>
      <rect x="660.67" y="153.33" width="48.67" height="346.67"/>
      <rect x="717.33" y="153.33" width="48.67" height="346.67"/>
      <rect x="774"    y="283.33" width="48.67" height="216.67"/>
      <rect x="830.67" y="456.67" width="48.67" height="43.33"/>
    </g>

    <g font-size="11" fill="#1A202C" text-anchor="middle" font-weight="600">
      <text x="118.33" y="448.67">1</text>
      <text x="288.33" y="448.67">1</text>
      <text x="345"    y="448.67">1</text>
      <text x="401.67" y="362">3</text>
      <text x="458.33" y="405.33">2</text>
      <text x="515"    y="362">3</text>
      <text x="571.67" y="362">3</text>
      <text x="628.33" y="275.33">5</text>
      <text x="685"    y="145.33">8</text>
      <text x="741.67" y="145.33">8</text>
      <text x="798.33" y="275.33">5</text>
      <text x="855"    y="448.67">1</text>
    </g>

    <g font-size="11" fill="#4A5568" text-anchor="middle">
      <line x1="90"     y1="500" x2="90"     y2="505" stroke="#2D3748"/>
      <line x1="146.67" y1="500" x2="146.67" y2="505" stroke="#2D3748"/>
      <line x1="203.33" y1="500" x2="203.33" y2="505" stroke="#2D3748"/>
      <line x1="260"    y1="500" x2="260"    y2="505" stroke="#2D3748"/>
      <line x1="316.67" y1="500" x2="316.67" y2="505" stroke="#2D3748"/>
      <line x1="373.33" y1="500" x2="373.33" y2="505" stroke="#2D3748"/>
      <line x1="430"    y1="500" x2="430"    y2="505" stroke="#2D3748"/>
      <line x1="486.67" y1="500" x2="486.67" y2="505" stroke="#2D3748"/>
      <line x1="543.33" y1="500" x2="543.33" y2="505" stroke="#2D3748"/>
      <line x1="600"    y1="500" x2="600"    y2="505" stroke="#2D3748"/>
      <line x1="656.67" y1="500" x2="656.67" y2="505" stroke="#2D3748"/>
      <line x1="713.33" y1="500" x2="713.33" y2="505" stroke="#2D3748"/>
      <line x1="770"    y1="500" x2="770"    y2="505" stroke="#2D3748"/>
      <line x1="826.67" y1="500" x2="826.67" y2="505" stroke="#2D3748"/>
      <line x1="883.33" y1="500" x2="883.33" y2="505" stroke="#2D3748"/>
      <line x1="940"    y1="500" x2="940"    y2="505" stroke="#2D3748"/>

      <text x="90"     y="520">−45</text>
      <text x="146.67" y="520">−40</text>
      <text x="203.33" y="520">−35</text>
      <text x="260"    y="520">−30</text>
      <text x="316.67" y="520">−25</text>
      <text x="373.33" y="520">−20</text>
      <text x="430"    y="520">−15</text>
      <text x="486.67" y="520">−10</text>
      <text x="543.33" y="520">−5</text>
      <text x="600"    y="520">0</text>
      <text x="656.67" y="520">5</text>
      <text x="713.33" y="520">10</text>
      <text x="770"    y="520">15</text>
      <text x="826.67" y="520">20</text>
      <text x="883.33" y="520">25</text>
      <text x="940"    y="520">30</text>
    </g>

    <text x="515" y="548" text-anchor="middle" font-size="13" font-weight="600" fill="#1A202C">
      Real stock return (% per year)
    </text>

    <line x1="623.12" y1="110" x2="623.12" y2="500" stroke="#DD6B20" stroke-width="1.5" stroke-dasharray="5,3"/>
    <text x="619" y="124" font-size="11" fill="#DD6B20" font-style="italic" text-anchor="end">Mean = 2.04% →</text>

    <line x1="669.36" y1="110" x2="669.36" y2="500" stroke="#2C7A7B" stroke-width="1.5" stroke-dasharray="2,2"/>
    <text x="673" y="124" font-size="11" fill="#2C7A7B" font-style="italic">← Median = 6.12%</text>

    <g>
      <rect x="100" y="120" width="158" height="118" fill="#FFFFFF" stroke="#CBD5E0" stroke-width="1"/>
      <text x="109" y="140" font-size="12" font-weight="700" fill="#1A202C">Summary statistics</text>
      <line x1="109" y1="146" x2="249" y2="146" stroke="#CBD5E0" stroke-width="1"/>
      <g font-size="11" fill="#1A202C">
        <text x="109" y="162">Observations</text><text x="249" y="162" text-anchor="end">41</text>
        <text x="109" y="178">Mean</text>        <text x="249" y="178" text-anchor="end">2.04%</text>
        <text x="109" y="194">Median</text>      <text x="249" y="194" text-anchor="end">6.12%</text>
        <text x="109" y="210">Std. dev.</text>   <text x="249" y="210" text-anchor="end">14.18%</text>
        <text x="109" y="226">Skewness</text>    <text x="249" y="226" text-anchor="end">−1.05</text>
      </g>
    </g>
  </g>

  <!-- ============================================================== -->
  <!-- Panel (d) bottom-right — Dy_GB                                  -->
  <!-- ============================================================== -->
  <g transform="translate(810,548) scale(0.78)">
    <rect width="1000" height="565" fill="#FFFFFF"/>

    <text x="500" y="42" text-anchor="middle" font-size="20" font-weight="700" fill="#1A202C">
      (d) GDP Growth — United Kingdom
    </text>
    <text x="500" y="66" text-anchor="middle" font-size="13" font-style="italic" fill="#4A5568">
      Log-difference of real GDP per capita (constant 2010 USD), 1984–2024
    </text>

    <g font-size="11" fill="#4A5568" text-anchor="end">
      <line x1="90" y1="500" x2="940" y2="500" stroke="#2D3748" stroke-width="1"/>
      <line x1="90" y1="422" x2="940" y2="422" stroke="#E2E8F0" stroke-width="1"/>
      <line x1="90" y1="344" x2="940" y2="344" stroke="#E2E8F0" stroke-width="1"/>
      <line x1="90" y1="266" x2="940" y2="266" stroke="#E2E8F0" stroke-width="1"/>
      <line x1="90" y1="188" x2="940" y2="188" stroke="#E2E8F0" stroke-width="1"/>
      <line x1="90" y1="110" x2="940" y2="110" stroke="#E2E8F0" stroke-width="1"/>

      <text x="80" y="504">0</text>
      <text x="80" y="426">5</text>
      <text x="80" y="348">10</text>
      <text x="80" y="270">15</text>
      <text x="80" y="192">20</text>
      <text x="80" y="114">25</text>
    </g>

    <text transform="translate(36,305) rotate(-90)" text-anchor="middle" font-size="13" font-weight="600" fill="#1A202C">
      Frequency (number of years)
    </text>

    <g fill="#2C5282" stroke="#1A365D" stroke-width="0.75">
      <rect x="164.83" y="484.4" width="62.83" height="15.6"/>
      <rect x="306.5"  y="484.4" width="62.83" height="15.6"/>
      <rect x="448.17" y="453.2" width="62.83" height="46.8"/>
      <rect x="519"    y="156.8" width="62.83" height="343.2"/>
      <rect x="589.83" y="297.2" width="62.83" height="202.8"/>
      <rect x="731.5"  y="484.4" width="62.83" height="15.6"/>
    </g>

    <g font-size="11" fill="#1A202C" text-anchor="middle" font-weight="600">
      <text x="196.25" y="476.4">1</text>
      <text x="337.92" y="476.4">1</text>
      <text x="479.58" y="445.2">3</text>
      <text x="550.42" y="148.8">22</text>
      <text x="621.25" y="289.2">13</text>
      <text x="762.92" y="476.4">1</text>
    </g>

    <g font-size="11" fill="#4A5568" text-anchor="middle">
      <line x1="90"     y1="500" x2="90"     y2="505" stroke="#2D3748"/>
      <line x1="160.83" y1="500" x2="160.83" y2="505" stroke="#2D3748"/>
      <line x1="231.67" y1="500" x2="231.67" y2="505" stroke="#2D3748"/>
      <line x1="302.5"  y1="500" x2="302.5"  y2="505" stroke="#2D3748"/>
      <line x1="373.33" y1="500" x2="373.33" y2="505" stroke="#2D3748"/>
      <line x1="444.17" y1="500" x2="444.17" y2="505" stroke="#2D3748"/>
      <line x1="515"    y1="500" x2="515"    y2="505" stroke="#2D3748"/>
      <line x1="585.83" y1="500" x2="585.83" y2="505" stroke="#2D3748"/>
      <line x1="656.67" y1="500" x2="656.67" y2="505" stroke="#2D3748"/>
      <line x1="727.5"  y1="500" x2="727.5"  y2="505" stroke="#2D3748"/>
      <line x1="798.33" y1="500" x2="798.33" y2="505" stroke="#2D3748"/>
      <line x1="869.17" y1="500" x2="869.17" y2="505" stroke="#2D3748"/>
      <line x1="940"    y1="500" x2="940"    y2="505" stroke="#2D3748"/>

      <text x="90"     y="520">−15</text>
      <text x="160.83" y="520">−12.5</text>
      <text x="231.67" y="520">−10</text>
      <text x="302.5"  y="520">−7.5</text>
      <text x="373.33" y="520">−5</text>
      <text x="444.17" y="520">−2.5</text>
      <text x="515"    y="520">0</text>
      <text x="585.83" y="520">2.5</text>
      <text x="656.67" y="520">5</text>
      <text x="727.5"  y="520">7.5</text>
      <text x="798.33" y="520">10</text>
      <text x="869.17" y="520">12.5</text>
      <text x="940"    y="520">15</text>
    </g>

    <text x="515" y="548" text-anchor="middle" font-size="13" font-weight="600" fill="#1A202C">
      GDP per-capita growth (% per year)
    </text>

    <line x1="561.75" y1="110" x2="561.75" y2="500" stroke="#DD6B20" stroke-width="1.5" stroke-dasharray="5,3"/>
    <text x="557" y="124" font-size="11" fill="#DD6B20" font-style="italic" text-anchor="end">Mean = 1.65% →</text>

    <line x1="571.38" y1="110" x2="571.38" y2="500" stroke="#2C7A7B" stroke-width="1.5" stroke-dasharray="2,2"/>
    <text x="575" y="124" font-size="11" fill="#2C7A7B" font-style="italic">← Median = 1.99%</text>

    <g>
      <rect x="100" y="120" width="158" height="118" fill="#FFFFFF" stroke="#CBD5E0" stroke-width="1"/>
      <text x="109" y="140" font-size="12" font-weight="700" fill="#1A202C">Summary statistics</text>
      <line x1="109" y1="146" x2="249" y2="146" stroke="#CBD5E0" stroke-width="1"/>
      <g font-size="11" fill="#1A202C">
        <text x="109" y="162">Observations</text><text x="249" y="162" text-anchor="end">41</text>
        <text x="109" y="178">Mean</text>        <text x="249" y="178" text-anchor="end">1.65%</text>
        <text x="109" y="194">Median</text>      <text x="249" y="194" text-anchor="end">1.99%</text>
        <text x="109" y="210">Std. dev.</text>   <text x="249" y="210" text-anchor="end">2.91%</text>
        <text x="109" y="226">Skewness</text>    <text x="249" y="226" text-anchor="end">−2.09</text>
      </g>
    </g>
  </g>
</svg>
