<?xml version="1.0" encoding="UTF-8"?>
<svg xmlns="http://www.w3.org/2000/svg" viewBox="0 0 1000 565" font-family="Arial, sans-serif">
  <rect width="1000" height="565" fill="#FFFFFF"/>

  <text x="500" y="42" text-anchor="middle" font-size="20" font-weight="700" fill="#1A202C">
    Figure 7. Scatter Plot of GDP Growth vs. Lagged Stock Returns — China
  </text>
  <text x="500" y="66" text-anchor="middle" font-size="13" font-style="italic" fill="#4A5568">
    Annual observations, 1992–2024 (n = 33). Trendline: simple OLS regression of Dy_t on r_{t−1}.
  </text>

  <!-- Plot area: x 100→760, y 110→480. X range −120 to 100 (1 unit = 3 px). Y 0 to 14 (1 unit = 26.43 px) -->

  <!-- Y gridlines + labels (0,2,4,…,14) -->
  <g font-size="11" fill="#4A5568" text-anchor="end">
    <line x1="100" y1="480"    x2="760" y2="480"    stroke="#2D3748" stroke-width="1"/>
    <line x1="100" y1="427.14" x2="760" y2="427.14" stroke="#E2E8F0"/>
    <line x1="100" y1="374.29" x2="760" y2="374.29" stroke="#E2E8F0"/>
    <line x1="100" y1="321.43" x2="760" y2="321.43" stroke="#E2E8F0"/>
    <line x1="100" y1="268.57" x2="760" y2="268.57" stroke="#E2E8F0"/>
    <line x1="100" y1="215.71" x2="760" y2="215.71" stroke="#E2E8F0"/>
    <line x1="100" y1="162.86" x2="760" y2="162.86" stroke="#E2E8F0"/>
    <line x1="100" y1="110"    x2="760" y2="110"    stroke="#E2E8F0"/>

    <text x="92" y="484">0</text>
    <text x="92" y="431">2</text>
    <text x="92" y="378">4</text>
    <text x="92" y="325">6</text>
    <text x="92" y="272">8</text>
    <text x="92" y="220">10</text>
    <text x="92" y="167">12</text>
    <text x="92" y="114">14</text>
  </g>

  <text transform="translate(46,295) rotate(-90)" text-anchor="middle" font-size="13" font-weight="600" fill="#1A202C">
    GDP per-capita growth Dy_t (% per year)
  </text>

  <!-- X axis ticks at -120,-100,…,100 (every 20) -->
  <g font-size="11" fill="#4A5568" text-anchor="middle">
    <line x1="100" y1="480" x2="100" y2="485" stroke="#2D3748"/>
    <line x1="160" y1="480" x2="160" y2="485" stroke="#2D3748"/>
    <line x1="220" y1="480" x2="220" y2="485" stroke="#2D3748"/>
    <line x1="280" y1="480" x2="280" y2="485" stroke="#2D3748"/>
    <line x1="340" y1="480" x2="340" y2="485" stroke="#2D3748"/>
    <line x1="400" y1="480" x2="400" y2="485" stroke="#2D3748"/>
    <line x1="460" y1="480" x2="460" y2="485" stroke="#2D3748"/>
    <line x1="520" y1="480" x2="520" y2="485" stroke="#2D3748"/>
    <line x1="580" y1="480" x2="580" y2="485" stroke="#2D3748"/>
    <line x1="640" y1="480" x2="640" y2="485" stroke="#2D3748"/>
    <line x1="700" y1="480" x2="700" y2="485" stroke="#2D3748"/>
    <line x1="760" y1="480" x2="760" y2="485" stroke="#2D3748"/>

    <text x="100" y="500">−120</text>
    <text x="160" y="500">−100</text>
    <text x="220" y="500">−80</text>
    <text x="280" y="500">−60</text>
    <text x="340" y="500">−40</text>
    <text x="400" y="500">−20</text>
    <text x="460" y="500">0</text>
    <text x="520" y="500">20</text>
    <text x="580" y="500">40</text>
    <text x="640" y="500">60</text>
    <text x="700" y="500">80</text>
    <text x="760" y="500">100</text>
  </g>

  <text x="430" y="528" text-anchor="middle" font-size="13" font-weight="600" fill="#1A202C">
    Previous-year real stock return r_{t−1} (% per year)
  </text>

  <!-- Vertical reference at x = 0 -->
  <line x1="460" y1="110" x2="460" y2="480" stroke="#A0AEC0" stroke-width="1" stroke-dasharray="2,3"/>

  <!-- Trendline: y = 0.0163x + 7.74. At x=-120: y=5.78 (y_px=327.20). At x=100: y=9.37 (y_px=232.30) -->
  <line x1="100" y1="327.20" x2="760" y2="232.30" stroke="#DD6B20" stroke-width="2" stroke-dasharray="6,3"/>

  <!-- Data points (China): 33 paired observations 1992–2024 -->
  <g fill="#9B2C2C" fill-opacity="0.75" stroke="#742A2A" stroke-width="0.75">
    <circle cx="698.44" cy="159.16" r="5"/>
    <circle cx="735.07" cy="165.77" r="5"/>
    <circle cx="436.03" cy="185.06" r="5"/>
    <circle cx="311.53" cy="232.10" r="5"/>
    <circle cx="363.37" cy="256.42" r="5"/>
    <circle cx="585.55" cy="272.27" r="5"/>
    <circle cx="530.86" cy="303.99" r="5"/>
    <circle cx="450.16" cy="305.84" r="5"/>
    <circle cx="516.82" cy="283.12" r="5"/>
    <circle cx="584.02" cy="288.14" r="5"/>
    <circle cx="388.57" cy="264.09" r="5"/>
    <circle cx="404.41" cy="241.62" r="5"/>
    <circle cx="485.95" cy="240.56" r="5"/>
    <circle cx="398.35" cy="208.85" r="5"/>
    <circle cx="428.59" cy="179.25" r="5"/>
    <circle cx="705.49" cy="144.09" r="5"/>
    <circle cx="648.43" cy="249.55" r="5"/>
    <circle cx="123.88" cy="255.63" r="5"/>
    <circle cx="638.50" cy="255.63" r="5"/>
    <circle cx="404.14" cy="226.56" r="5"/>
    <circle cx="370.06" cy="255.63" r="5"/>
    <circle cx="461.50" cy="298.18" r="5"/>
    <circle cx="431.17" cy="299.77" r="5"/>
    <circle cx="581.56" cy="306.38" r="5"/>
    <circle cx="482.68" cy="317.21" r="5"/>
    <circle cx="414.61" cy="321.97" r="5"/>
    <circle cx="474.28" cy="319.85" r="5"/>
    <circle cx="369.10" cy="333.59" r="5"/>
    <circle cx="511.69" cy="425.08" r="5"/>
    <circle cx="491.71" cy="265.14" r="5"/>
    <circle cx="471.13" cy="398.09" r="5"/>
    <circle cx="404.89" cy="337.82" r="5"/>
    <circle cx="447.97" cy="348.40" r="5"/>
  </g>

  <!-- Statistics / regression inset (top-right) -->
  <g>
    <rect x="780" y="120" width="200" height="148" fill="#FFFFFF" stroke="#CBD5E0" stroke-width="1"/>
    <text x="880" y="140" text-anchor="middle" font-size="12" font-weight="700" fill="#1A202C">Regression output</text>
    <line x1="788" y1="146" x2="972" y2="146" stroke="#CBD5E0"/>
    <text x="788" y="164" font-size="11" font-style="italic" fill="#1A202C">Dy_t = α + β·r_{t−1}</text>
    <g font-size="11" fill="#1A202C">
      <text x="788" y="184">Intercept (α)</text>  <text x="962" y="184" text-anchor="end">7.7386</text>
      <text x="788" y="202">Slope (β)</text>      <text x="962" y="202" text-anchor="end">0.0163</text>
      <text x="788" y="220">R²</text>             <text x="962" y="220" text-anchor="end">0.0755</text>
      <text x="788" y="238">t-stat (β)</text>    <text x="962" y="238" text-anchor="end">1.591</text>
      <text x="788" y="256">p-value (β)</text>   <text x="962" y="256" text-anchor="end">0.122</text>
    </g>
  </g>
  <text x="880" y="285" text-anchor="middle" font-size="11" font-weight="600" fill="#DD6B20">— Trendline: ŷ = 0.0163x + 7.74</text>
  <text x="880" y="302" text-anchor="middle" font-size="11" fill="#4A5568">n = 33 (1992–2024)</text>
</svg>
