<?xml version="1.0" encoding="UTF-8"?>
<svg xmlns="http://www.w3.org/2000/svg" viewBox="0 0 1000 565" font-family="Arial, sans-serif">
  <rect width="1000" height="565" fill="#FFFFFF"/>

  <text x="500" y="42" text-anchor="middle" font-size="20" font-weight="700" fill="#1A202C">
    Figure 8. Scatter Plot of GDP Growth vs. Lagged Stock Returns — United Kingdom
  </text>
  <text x="500" y="66" text-anchor="middle" font-size="13" font-style="italic" fill="#4A5568">
    Annual observations, 1985–2024 (n = 40). Trendline: simple OLS regression of Dy_t on r_{t−1}.
  </text>

  <!-- Plot area: x 100→760 (660 wide), y 110→480 (370 tall). X range −45 to 30 (1 unit = 8.8 px). Y −12 to 8 (1 unit = 18.5 px). -->

  <!-- Y gridlines + labels (-12,-8,-4,0,4,8) -->
  <g font-size="11" fill="#4A5568" text-anchor="end">
    <line x1="100" y1="480" x2="760" y2="480" stroke="#2D3748" stroke-width="1"/>
    <line x1="100" y1="406" x2="760" y2="406" stroke="#E2E8F0"/>
    <line x1="100" y1="332" x2="760" y2="332" stroke="#E2E8F0"/>
    <line x1="100" y1="258" x2="760" y2="258" stroke="#1A202C" stroke-width="1"/>
    <line x1="100" y1="184" x2="760" y2="184" stroke="#E2E8F0"/>
    <line x1="100" y1="110" x2="760" y2="110" stroke="#E2E8F0"/>

    <text x="92" y="484">−12</text>
    <text x="92" y="410">−8</text>
    <text x="92" y="336">−4</text>
    <text x="92" y="262">0</text>
    <text x="92" y="188">4</text>
    <text x="92" y="114">8</text>
  </g>

  <text transform="translate(46,295) rotate(-90)" text-anchor="middle" font-size="13" font-weight="600" fill="#1A202C">
    GDP per-capita growth Dy_t (% per year)
  </text>

  <!-- X axis ticks at −40,−30,…,30 -->
  <g font-size="11" fill="#4A5568" text-anchor="middle">
    <line x1="144" y1="480" x2="144" y2="485" stroke="#2D3748"/>
    <line x1="232" y1="480" x2="232" y2="485" stroke="#2D3748"/>
    <line x1="320" y1="480" x2="320" y2="485" stroke="#2D3748"/>
    <line x1="408" y1="480" x2="408" y2="485" stroke="#2D3748"/>
    <line x1="496" y1="480" x2="496" y2="485" stroke="#2D3748"/>
    <line x1="584" y1="480" x2="584" y2="485" stroke="#2D3748"/>
    <line x1="672" y1="480" x2="672" y2="485" stroke="#2D3748"/>
    <line x1="760" y1="480" x2="760" y2="485" stroke="#2D3748"/>

    <text x="144" y="500">−40</text>
    <text x="232" y="500">−30</text>
    <text x="320" y="500">−20</text>
    <text x="408" y="500">−10</text>
    <text x="496" y="500">0</text>
    <text x="584" y="500">10</text>
    <text x="672" y="500">20</text>
    <text x="760" y="500">30</text>
  </g>

  <text x="430" y="528" text-anchor="middle" font-size="13" font-weight="600" fill="#1A202C">
    Previous-year real stock return r_{t−1} (% per year)
  </text>

  <!-- Vertical reference at x = 0 -->
  <line x1="496" y1="110" x2="496" y2="480" stroke="#A0AEC0" stroke-width="1" stroke-dasharray="2,3"/>

  <!-- Trendline: y = 1.5343 + 0.0458 x. At x=-45 y=-0.527, y_px=267.74. At x=30 y=2.908, y_px=204.20 -->
  <line x1="100" y1="267.74" x2="760" y2="204.20" stroke="#DD6B20" stroke-width="2" stroke-dasharray="6,3"/>

  <!-- Data points (UK): 40 paired observations 1985–2024 -->
  <g fill="#2C5282" fill-opacity="0.75" stroke="#1A365D" stroke-width="0.75">
    <circle cx="636.10" cy="196.77" r="5"/>
    <circle cx="562.79" cy="189.55" r="5"/>
    <circle cx="617.88" cy="179.38" r="5"/>
    <circle cx="476.99" cy="171.24" r="5"/>
    <circle cx="499.78" cy="221.00" r="5"/>
    <circle cx="710.10" cy="249.12" r="5"/>
    <circle cx="317.27" cy="287.79" r="5"/>
    <circle cx="563.32" cy="239.13" r="5"/>
    <circle cx="572.21" cy="198.99" r="5"/>
    <circle cx="634.60" cy="173.27" r="5"/>
    <circle cx="380.54" cy="198.62" r="5"/>
    <circle cx="635.30" cy="214.90" r="5"/>
    <circle cx="567.72" cy="174.57" r="5"/>
    <circle cx="670.86" cy="204.35" r="5"/>
    <circle cx="599.49" cy="210.46" r="5"/>
    <circle cx="624.83" cy="182.71" r="5"/>
    <circle cx="390.84" cy="221.37" r="5"/>
    <circle cx="327.48" cy="234.51" r="5"/>
    <circle cx="235.61" cy="208.05" r="5"/>
    <circle cx="596.23" cy="226.00" r="5"/>
    <circle cx="547.74" cy="219.71" r="5"/>
    <circle cx="613.57" cy="231.55" r="5"/>
    <circle cx="563.94" cy="218.97" r="5"/>
    <circle cx="507.79" cy="273.54" r="5"/>
    <circle cx="134.32" cy="358.83" r="5"/>
    <circle cx="654.22" cy="231.18" r="5"/>
    <circle cx="549.86" cy="256.71" r="5"/>
    <circle cx="411.78" cy="243.20" r="5"/>
    <circle cx="523.28" cy="238.95" r="5"/>
    <circle cx="594.47" cy="214.34" r="5"/>
    <circle cx="459.04" cy="232.10" r="5"/>
    <circle cx="448.30" cy="232.29" r="5"/>
    <circle cx="605.74" cy="213.05" r="5"/>
    <circle cx="538.15" cy="238.58" r="5"/>
    <circle cx="358.46" cy="244.50" r="5"/>
    <circle cx="581.27" cy="457.06" r="5"/>
    <circle cx="351.06" cy="112.96" r="5"/>
    <circle cx="591.48" cy="219.15" r="5"/>
    <circle cx="434.22" cy="277.06" r="5"/>
    <circle cx="468.81" cy="257.08" r="5"/>
  </g>

  <!-- Statistics / regression inset -->
  <g>
    <rect x="780" y="120" width="200" height="148" fill="#FFFFFF" stroke="#CBD5E0" stroke-width="1"/>
    <text x="880" y="140" text-anchor="middle" font-size="12" font-weight="700" fill="#1A202C">Regression output</text>
    <line x1="788" y1="146" x2="972" y2="146" stroke="#CBD5E0"/>
    <text x="788" y="164" font-size="11" font-style="italic" fill="#1A202C">Dy_t = α + β·r_{t−1}</text>
    <g font-size="11" fill="#1A202C">
      <text x="788" y="184">Intercept (α)</text>  <text x="962" y="184" text-anchor="end">1.5343</text>
      <text x="788" y="202">Slope (β)</text>      <text x="962" y="202" text-anchor="end">0.0458</text>
      <text x="788" y="220">R²</text>             <text x="962" y="220" text-anchor="end">0.0498</text>
      <text x="788" y="238">t-stat (β)</text>    <text x="962" y="238" text-anchor="end">1.411</text>
      <text x="788" y="256">p-value (β)</text>   <text x="962" y="256" text-anchor="end">0.166</text>
    </g>
  </g>
  <text x="880" y="285" text-anchor="middle" font-size="11" font-weight="600" fill="#DD6B20">— Trendline: ŷ = 0.0458x + 1.53</text>
  <text x="880" y="302" text-anchor="middle" font-size="11" fill="#4A5568">n = 40 (1985–2024)</text>
</svg>
